<svg width="23" height="22" viewBox="0 0 23 22" fill="none" xmlns="http://www.w3.org/2000/svg">
<path d="M22.5 11C22.5 16.7783 17.5963 21.5 11.5 21.5C5.40369 21.5 0.5 16.7783 0.5 11C0.5 5.22172 5.40369 0.5 11.5 0.5C17.5963 0.5 22.5 5.22172 22.5 11Z" stroke="#373737"/>
<path d="M10.4314 13.064H12.5114V12.136C12.5114 10.296 14.7194 10.072 14.7194 7.528C14.7194 5.864 13.3754 4.52 11.4714 4.52C9.45538 4.52 8.23938 6.072 8.23938 8.152H10.3034C10.3034 7.224 10.6554 6.44 11.5194 6.44C12.1754 6.44 12.6394 6.888 12.6394 7.688C12.6394 9.272 10.4314 9.544 10.4314 11.96V13.064ZM11.4714 17.16C12.3674 17.16 13.0234 16.504 13.0234 15.624C13.0234 14.824 12.3834 14.072 11.4714 14.072C10.5914 14.072 9.93538 14.808 9.93538 15.624C9.93538 16.504 10.6234 17.16 11.4714 17.16Z" fill="#373737"/>
</svg>
